<?xml version="1.0" encoding="UTF-8" standalone="no"?>
<!DOCTYPE svg PUBLIC "-//W3C//DTD SVG 1.1//EN"
 "http://www.w3.org/Graphics/SVG/1.1/DTD/svg11.dtd">
<!-- Generated by graphviz version 2.40.1 (20161225.0304)
 -->
<!-- Title: dependencies Pages: 1 -->
<svg width="777pt" height="211pt"
 viewBox="0.00 0.00 777.00 211.00" xmlns="http://www.w3.org/2000/svg" xmlns:xlink="http://www.w3.org/1999/xlink">
<g id="graph0" class="graph" transform="scale(1 1) rotate(0) translate(4 207)">
<title>dependencies</title>
<polygon fill="#ffffff" stroke="transparent" points="-4,4 -4,-207 773,-207 773,4 -4,4"/>
<text text-anchor="start" x="363.5091" y="-42.4" font-family="sans-serif" font-weight="bold" font-size="14.00" fill="#000000">Legend</text>
<polygon fill="#ffffb3" stroke="transparent" points="150.5,-10 150.5,-30 170.5,-30 170.5,-10 150.5,-10"/>
<text text-anchor="start" x="174.129" y="-15.4" font-family="sans-serif" font-size="14.00" fill="#000000"> &#160;Declarations</text>
<polygon fill="#8dd3c7" stroke="transparent" points="263.5,-10 263.5,-30 283.5,-30 283.5,-10 263.5,-10"/>
<text text-anchor="start" x="287.2251" y="-15.4" font-family="sans-serif" font-size="14.00" fill="#000000"> &#160;Module</text>
<polygon fill="#80b1d3" stroke="transparent" points="349.5,-10 349.5,-30 369.5,-30 369.5,-10 349.5,-10"/>
<text text-anchor="start" x="373.2812" y="-15.4" font-family="sans-serif" font-size="14.00" fill="#000000"> &#160;Bootstrap</text>
<polygon fill="#fdb462" stroke="transparent" points="446.5,-10 446.5,-30 466.5,-30 466.5,-10 446.5,-10"/>
<text text-anchor="start" x="470.1732" y="-15.4" font-family="sans-serif" font-size="14.00" fill="#000000"> &#160;Providers</text>
<polygon fill="#fb8072" stroke="transparent" points="542.5,-10 542.5,-30 562.5,-30 562.5,-10 542.5,-10"/>
<text text-anchor="start" x="566.2258" y="-15.4" font-family="sans-serif" font-size="14.00" fill="#000000"> &#160;Exports</text>
<g id="clust1" class="cluster">
<title>cluster_ClientModule</title>
<polygon fill="none" stroke="#000000" stroke-dasharray="1,5" points="8,-70 8,-195 761,-195 761,-70 8,-70"/>
</g>
<g id="clust2" class="cluster">
<title>cluster_ClientModule_declarations</title>
<polygon fill="none" stroke="#000000" points="295,-78 295,-130 753,-130 753,-78 295,-78"/>
</g>
<g id="clust6" class="cluster">
<title>cluster_ClientModule_imports</title>
<polygon fill="none" stroke="#000000" points="16,-78 16,-130 287,-130 287,-78 16,-78"/>
</g>
<!-- ClientComponent -->
<g id="node1" class="node">
<title>ClientComponent</title>
<polygon fill="#ffffb3" stroke="#000000" points="744.5563,-122 629.4437,-122 629.4437,-86 744.5563,-86 744.5563,-122"/>
<text text-anchor="middle" x="687" y="-99.8" font-family="Times,serif" font-size="14.00" fill="#000000">ClientComponent</text>
</g>
<!-- ClientModule -->
<g id="node4" class="node">
<title>ClientModule</title>
<polygon fill="#8dd3c7" stroke="#000000" points="423.7731,-187 420.7731,-191 399.7731,-191 396.7731,-187 330.2269,-187 330.2269,-151 423.7731,-151 423.7731,-187"/>
<text text-anchor="middle" x="377" y="-164.8" font-family="Times,serif" font-size="14.00" fill="#000000">ClientModule</text>
</g>
<!-- ClientComponent&#45;&gt;ClientModule -->
<g id="edge1" class="edge">
<title>ClientComponent&#45;&gt;ClientModule</title>
<path fill="none" stroke="#000000" d="M687,-122.2843C687,-143.3211 687,-175 687,-175 687,-175 434.0823,-175 434.0823,-175"/>
<polygon fill="#000000" stroke="#000000" points="434.0824,-171.5001 424.0823,-175 434.0823,-178.5001 434.0824,-171.5001"/>
</g>
<!-- ListClientsComponent -->
<g id="node2" class="node">
<title>ListClientsComponent</title>
<polygon fill="#ffffb3" stroke="#000000" points="611.2786,-122 468.7214,-122 468.7214,-86 611.2786,-86 611.2786,-122"/>
<text text-anchor="middle" x="540" y="-99.8" font-family="Times,serif" font-size="14.00" fill="#000000">ListClientsComponent</text>
</g>
<!-- ListClientsComponent&#45;&gt;ClientModule -->
<g id="edge2" class="edge">
<title>ListClientsComponent&#45;&gt;ClientModule</title>
<path fill="none" stroke="#000000" d="M540,-122.0225C540,-139.3734 540,-163 540,-163 540,-163 434.1464,-163 434.1464,-163"/>
<polygon fill="#000000" stroke="#000000" points="434.1464,-159.5001 424.1464,-163 434.1463,-166.5001 434.1464,-159.5001"/>
</g>
<!-- PageClientsComponent -->
<g id="node3" class="node">
<title>PageClientsComponent</title>
<polygon fill="#ffffb3" stroke="#000000" points="451.212,-122 302.788,-122 302.788,-86 451.212,-86 451.212,-122"/>
<text text-anchor="middle" x="377" y="-99.8" font-family="Times,serif" font-size="14.00" fill="#000000">PageClientsComponent</text>
</g>
<!-- PageClientsComponent&#45;&gt;ClientModule -->
<g id="edge3" class="edge">
<title>PageClientsComponent&#45;&gt;ClientModule</title>
<path fill="none" stroke="#000000" d="M377,-122.1061C377,-122.1061 377,-140.991 377,-140.991"/>
<polygon fill="#000000" stroke="#000000" points="373.5001,-140.9909 377,-150.991 380.5001,-140.991 373.5001,-140.9909"/>
</g>
<!-- ClientRoutingModule -->
<g id="node5" class="node">
<title>ClientRoutingModule</title>
<polygon fill="#8dd3c7" stroke="#000000" points="279.3906,-122 276.3906,-126 255.3906,-126 252.3906,-122 140.6094,-122 140.6094,-86 279.3906,-86 279.3906,-122"/>
<text text-anchor="middle" x="210" y="-99.8" font-family="Times,serif" font-size="14.00" fill="#000000">ClientRoutingModule</text>
</g>
<!-- ClientRoutingModule&#45;&gt;ClientModule -->
<g id="edge4" class="edge">
<title>ClientRoutingModule&#45;&gt;ClientModule</title>
<path fill="none" stroke="#000000" d="M210,-122.0225C210,-139.3734 210,-163 210,-163 210,-163 320.0368,-163 320.0368,-163"/>
<polygon fill="#000000" stroke="#000000" points="320.0368,-166.5001 330.0368,-163 320.0367,-159.5001 320.0368,-166.5001"/>
</g>
<!-- SharedModule -->
<g id="node6" class="node">
<title>SharedModule</title>
<polygon fill="#8dd3c7" stroke="#000000" points="122.4231,-122 119.4231,-126 98.4231,-126 95.4231,-122 23.5769,-122 23.5769,-86 122.4231,-86 122.4231,-122"/>
<text text-anchor="middle" x="73" y="-99.8" font-family="Times,serif" font-size="14.00" fill="#000000">SharedModule</text>
</g>
<!-- SharedModule&#45;&gt;ClientModule -->
<g id="edge5" class="edge">
<title>SharedModule&#45;&gt;ClientModule</title>
<path fill="none" stroke="#000000" d="M73,-122.2843C73,-143.3211 73,-175 73,-175 73,-175 320.1662,-175 320.1662,-175"/>
<polygon fill="#000000" stroke="#000000" points="320.1663,-178.5001 330.1662,-175 320.1662,-171.5001 320.1663,-178.5001"/>
</g>
</g>
</svg>
