<?xml version="1.0" encoding="UTF-8" standalone="no"?>
<!DOCTYPE svg PUBLIC "-//W3C//DTD SVG 1.1//EN"
 "http://www.w3.org/Graphics/SVG/1.1/DTD/svg11.dtd">
<!-- Generated by graphviz version 2.40.1 (20161225.0304)
 -->
<!-- Title: dependencies Pages: 1 -->
<svg width="865pt" height="211pt"
 viewBox="0.00 0.00 865.00 211.00" xmlns="http://www.w3.org/2000/svg" xmlns:xlink="http://www.w3.org/1999/xlink">
<g id="graph0" class="graph" transform="scale(1 1) rotate(0) translate(4 207)">
<title>dependencies</title>
<polygon fill="#ffffff" stroke="transparent" points="-4,4 -4,-207 861,-207 861,4 -4,4"/>
<text text-anchor="start" x="407.5091" y="-42.4" font-family="sans-serif" font-weight="bold" font-size="14.00" fill="#000000">Legend</text>
<polygon fill="#ffffb3" stroke="transparent" points="194.5,-10 194.5,-30 214.5,-30 214.5,-10 194.5,-10"/>
<text text-anchor="start" x="218.129" y="-15.4" font-family="sans-serif" font-size="14.00" fill="#000000"> &#160;Declarations</text>
<polygon fill="#8dd3c7" stroke="transparent" points="307.5,-10 307.5,-30 327.5,-30 327.5,-10 307.5,-10"/>
<text text-anchor="start" x="331.2251" y="-15.4" font-family="sans-serif" font-size="14.00" fill="#000000"> &#160;Module</text>
<polygon fill="#80b1d3" stroke="transparent" points="393.5,-10 393.5,-30 413.5,-30 413.5,-10 393.5,-10"/>
<text text-anchor="start" x="417.2812" y="-15.4" font-family="sans-serif" font-size="14.00" fill="#000000"> &#160;Bootstrap</text>
<polygon fill="#fdb462" stroke="transparent" points="490.5,-10 490.5,-30 510.5,-30 510.5,-10 490.5,-10"/>
<text text-anchor="start" x="514.1732" y="-15.4" font-family="sans-serif" font-size="14.00" fill="#000000"> &#160;Providers</text>
<polygon fill="#fb8072" stroke="transparent" points="586.5,-10 586.5,-30 606.5,-30 606.5,-10 586.5,-10"/>
<text text-anchor="start" x="610.2258" y="-15.4" font-family="sans-serif" font-size="14.00" fill="#000000"> &#160;Exports</text>
<g id="clust1" class="cluster">
<title>cluster_PrestationModule</title>
<polygon fill="none" stroke="#000000" stroke-dasharray="1,5" points="8,-70 8,-195 849,-195 849,-70 8,-70"/>
</g>
<g id="clust2" class="cluster">
<title>cluster_PrestationModule_declarations</title>
<polygon fill="none" stroke="#000000" points="317,-78 317,-130 841,-130 841,-78 317,-78"/>
</g>
<g id="clust6" class="cluster">
<title>cluster_PrestationModule_imports</title>
<polygon fill="none" stroke="#000000" points="16,-78 16,-130 309,-130 309,-78 16,-78"/>
</g>
<!-- ListPrestationsComponent -->
<g id="node1" class="node">
<title>ListPrestationsComponent</title>
<polygon fill="#ffffb3" stroke="#000000" points="833.0448,-122 668.9552,-122 668.9552,-86 833.0448,-86 833.0448,-122"/>
<text text-anchor="middle" x="751" y="-99.8" font-family="Times,serif" font-size="14.00" fill="#000000">ListPrestationsComponent</text>
</g>
<!-- PrestationModule -->
<g id="node4" class="node">
<title>PrestationModule</title>
<polygon fill="#8dd3c7" stroke="#000000" points="451.5395,-187 448.5395,-191 427.5395,-191 424.5395,-187 336.4605,-187 336.4605,-151 451.5395,-151 451.5395,-187"/>
<text text-anchor="middle" x="394" y="-164.8" font-family="Times,serif" font-size="14.00" fill="#000000">PrestationModule</text>
</g>
<!-- ListPrestationsComponent&#45;&gt;PrestationModule -->
<g id="edge1" class="edge">
<title>ListPrestationsComponent&#45;&gt;PrestationModule</title>
<path fill="none" stroke="#000000" d="M751,-122.2843C751,-143.3211 751,-175 751,-175 751,-175 461.755,-175 461.755,-175"/>
<polygon fill="#000000" stroke="#000000" points="461.755,-171.5001 451.755,-175 461.755,-178.5001 461.755,-171.5001"/>
</g>
<!-- PagePrestationsComponent -->
<g id="node2" class="node">
<title>PagePrestationsComponent</title>
<polygon fill="#ffffb3" stroke="#000000" points="650.9776,-122 481.0224,-122 481.0224,-86 650.9776,-86 650.9776,-122"/>
<text text-anchor="middle" x="566" y="-99.8" font-family="Times,serif" font-size="14.00" fill="#000000">PagePrestationsComponent</text>
</g>
<!-- PagePrestationsComponent&#45;&gt;PrestationModule -->
<g id="edge2" class="edge">
<title>PagePrestationsComponent&#45;&gt;PrestationModule</title>
<path fill="none" stroke="#000000" d="M566,-122.0225C566,-139.3734 566,-163 566,-163 566,-163 461.752,-163 461.752,-163"/>
<polygon fill="#000000" stroke="#000000" points="461.752,-159.5001 451.752,-163 461.752,-166.5001 461.752,-159.5001"/>
</g>
<!-- PrestationComponent -->
<g id="node3" class="node">
<title>PrestationComponent</title>
<polygon fill="#ffffb3" stroke="#000000" points="462.8216,-122 325.1784,-122 325.1784,-86 462.8216,-86 462.8216,-122"/>
<text text-anchor="middle" x="394" y="-99.8" font-family="Times,serif" font-size="14.00" fill="#000000">PrestationComponent</text>
</g>
<!-- PrestationComponent&#45;&gt;PrestationModule -->
<g id="edge3" class="edge">
<title>PrestationComponent&#45;&gt;PrestationModule</title>
<path fill="none" stroke="#000000" d="M394,-122.1061C394,-122.1061 394,-140.991 394,-140.991"/>
<polygon fill="#000000" stroke="#000000" points="390.5001,-140.9909 394,-150.991 397.5001,-140.991 390.5001,-140.9909"/>
</g>
<!-- PrestationRoutingModule -->
<g id="node5" class="node">
<title>PrestationRoutingModule</title>
<polygon fill="#8dd3c7" stroke="#000000" points="301.1568,-122 298.1568,-126 277.1568,-126 274.1568,-122 140.8432,-122 140.8432,-86 301.1568,-86 301.1568,-122"/>
<text text-anchor="middle" x="221" y="-99.8" font-family="Times,serif" font-size="14.00" fill="#000000">PrestationRoutingModule</text>
</g>
<!-- PrestationRoutingModule&#45;&gt;PrestationModule -->
<g id="edge4" class="edge">
<title>PrestationRoutingModule&#45;&gt;PrestationModule</title>
<path fill="none" stroke="#000000" d="M221,-122.0225C221,-139.3734 221,-163 221,-163 221,-163 326.3935,-163 326.3935,-163"/>
<polygon fill="#000000" stroke="#000000" points="326.3935,-166.5001 336.3935,-163 326.3935,-159.5001 326.3935,-166.5001"/>
</g>
<!-- SharedModule -->
<g id="node6" class="node">
<title>SharedModule</title>
<polygon fill="#8dd3c7" stroke="#000000" points="122.4231,-122 119.4231,-126 98.4231,-126 95.4231,-122 23.5769,-122 23.5769,-86 122.4231,-86 122.4231,-122"/>
<text text-anchor="middle" x="73" y="-99.8" font-family="Times,serif" font-size="14.00" fill="#000000">SharedModule</text>
</g>
<!-- SharedModule&#45;&gt;PrestationModule -->
<g id="edge5" class="edge">
<title>SharedModule&#45;&gt;PrestationModule</title>
<path fill="none" stroke="#000000" d="M73,-122.2843C73,-143.3211 73,-175 73,-175 73,-175 326.2409,-175 326.2409,-175"/>
<polygon fill="#000000" stroke="#000000" points="326.2409,-178.5001 336.2409,-175 326.2409,-171.5001 326.2409,-178.5001"/>
</g>
</g>
</svg>
